# xmcd
#
# Track frame offsets: 
#        150
#        11032
#        23302
#        34937
#        46020
#        58157
#        67695
#        78695
#        90279
#        101300
#
# Disc length: 1522 seconds
#
# Revision: 0
# Processed by: cddbd v1.4PL0 Copyright (c) Steve Scherf et al.
# Submitted via: ExactAudioCopy v0.95a2
#
DISCID=6605f00a
DTITLE=Connie Smith - Connie Smith Sings Her Hits
DYEAR=1997
DGENRE=Country
TTITLE0=You've Got Me (Right Where You Want Me)
TTITLE1=Ain't Love a Good Thing
TTITLE2=I Never Knew (What that Song Meant Before)
TTITLE3=I've Got My Baby on My Mind
TTITLE4=I Got a Lot of Hurtin' Done Today
TTITLE5=Why Don't You Love Me
TTITLE6=The Song We Fell in Love To
TTITLE7=('Til) I Kissed You
TTITLE8=So Sad (To Watch Good Love Go Bad)
TTITLE9=I Don't Wanna Talk It Over Anymore
EXTD=
EXTT0=
EXTT1=
EXTT2=
EXTT3=
EXTT4=
EXTT5=
EXTT6=
EXTT7=
EXTT8=
EXTT9=
PLAYORDER=
